<?xml version="1.0" encoding="UTF-8"?>
<svg xmlns="http://www.w3.org/2000/svg" id="flag-icons-in" viewBox="0 0 640 480">
<circle style="fill:#F0F0F0;" cx="256" cy="256" r="256"/>
  <g fill-rule="evenodd">
    <path fill="#ff9933" d="M0 0h640v160H0z"/>
    <path fill="#fff" d="M0 160h640v160H0z"/>
    <path fill="#128807" d="M0 320h640v160H0z"/>
    <circle cx="320" cy="240" r="56" fill="#000080"/>
    <path fill="#fff" d="M320 194.4l7.2 22.4h23.5l-19 13.8 7.2 22.4-19-13.8-19 13.8 7.2-22.4-19-13.8h23.5l7.2-22.4z"/>
    <path fill="#000080" d="M320 197.1c22.2 0 40.2 18 40.2 40.2 0 22.2-18 40.2-40.2 40.2-22.2 0-40.2-18-40.2-40.2 0-22.2 18-40.2 40.2-40.2zm0 8c-17.8 0-32.2 14.4-32.2 32.2S302.2 269.5 320 269.5s32.2-14.4 32.2-32.2S337.8 205.1 320 205.1z"/>
  </g>
</svg>
