<svg xmlns="http://www.w3.org/2000/svg" viewBox="0 0 24 24" width="30px" height="30px">
  <path fill="#E4405F" d="M12 2.2c3.2 0 3.6 0 4.8.1 1.2.1 2.2.5 2.9 1.1.8.6 1.4 1.5 1.6 2.6.3 1.2.1 1.6.1 4.8s0 3.6-.1 4.8c-.1 1.2-.5 2.2-1.1 2.9-.6.8-1.5 1.4-2.6 1.6-1.2.3-1.6.1-4.8.1s-3.6 0-4.8-.1c-1.2-.1-2.2-.5-2.9-1.1-.8-.6-1.4-1.5-1.6-2.6-.3-1.2-.1-1.6-.1-4.8s0-3.6.1-4.8c.1-1.2.5-2.2 1.1-2.9.6-.8 1.5-1.4 2.6-1.6 1.2-.3 1.6-.1 4.8-.1m0-2.2C8.6 0 8.2 0 7 0S4.8 0 3.6.1 1.6.5.9 1.1.1 2.4 0 3.6 0 4.8 0 7s0 3.6.1 4.8c.1 1.2.5 2.2 1.1 2.9.6.8 1.5 1.4 2.6 1.6 1.2.3 1.6.1 4.8.1s3.6 0 4.8-.1c1.2-.1 2.2-.5 2.9-1.1.8-.6 1.4-1.5 1.6-2.6.3-1.2.1-1.6.1-4.8s0-3.6-.1-4.8c-.1-1.2-.5-2.2-1.1-2.9-.6-.8-1.5-1.4-2.6-1.6-1.2-.3-1.6-.1-4.8-.1zM12 5.9a6.1 6.1 0 1 0 0 12.2 6.1 6.1 0 0 0 0-12.2zm0 10.1a4 4 0 1 1 0-8 4 4 0 0 1 0 8zm5.8-11.3a1.4 1.4 0 1 0 0-2.8 1.4 1.4 0 0 0 0 2.8z"/>
</svg>
